<?xml version="1.0" encoding="utf-8"?>
<!-- Generator: Adobe Illustrator 24.0.1, SVG Export Plug-In . SVG Version: 6.00 Build 0)  -->
<svg version="1.1" id="Layer_1" xmlns="http://www.w3.org/2000/svg" xmlns:xlink="http://www.w3.org/1999/xlink" x="0px" y="0px"
	 viewBox="0 0 595.3 170.1" style="enable-background:new 0 0 595.3 170.1;" xml:space="preserve">
<style type="text/css">
	.st0{fill:#A18865;}
</style>
<g>
	<path class="st0" d="M8,127H6.6l34.9-81.7l1.3-0.6L72.2,127h-9.9l-9.1-25.7H19.1L8,127z M37.9,57.9l-18.3,42.3h33.3L37.9,57.9z"/>
	<path class="st0" d="M76.9,99.9c0-10.1,2.5-17.9,7.4-23.5c4.9-5.5,12.3-8.3,22.1-8.3c4.6,0,9.2,1.2,13.9,3.5V39.6h8.2v79.1
		c0,2.3,0.4,4,1.3,5.2c0.9,1.2,1.8,1.8,2.7,1.9l1.3,0.2h3.6v0.9h-7.1c-3.2,0-5.6-0.7-7.3-2.1c-1.7-1.4-2.5-2.8-2.6-4.2l-0.1-2v-1.9
		c-1.5,2.7-3.9,5.1-7.4,7.2c-3.4,2.1-7.5,3.2-12.1,3.2C84.8,126.8,76.9,117.7,76.9,99.9z M100.8,126.3c5.2,0,9.7-1.4,13.4-4.2
		c3.7-2.8,5.7-5.6,6-8.3V72.7c-5.5-2.4-10.3-3.6-14.2-3.6c-6.9,0-12.1,2.7-15.6,8.1c-3.5,5.4-5.3,13-5.3,22.7
		C85.1,117.5,90.3,126.3,100.8,126.3z"/>
	<path class="st0" d="M193.4,127c-3.2,0-5.6-0.7-7.3-2.1c-1.7-1.4-2.5-2.8-2.6-4.2l-0.1-2V82c0-6.1-1.6-10.1-4.9-11.8
		c-1.6-0.8-3.5-1.2-6-1.2c-4.8,0-9.2,2-13,5.9c-3.9,3.9-5.8,7.5-5.8,10.6V127h-8.2V39.6h8.2v42.4c1.2-3.3,3.6-6.5,7.1-9.4
		s7.4-4.4,11.8-4.4c7.5,0,12.6,1.3,15.1,3.9c2.5,2.6,3.8,6,3.8,10.1v36.5c0,2.3,0.4,4,1.3,5.2c0.9,1.2,1.8,1.8,2.6,1.9l1.4,0.2h3.6
		v0.9H193.4z"/>
	<path class="st0" d="M255.1,127c-5.3,0-8.9-1-10.9-3c-1.8-1.7-2.7-3.2-2.7-4.4v-2.5c-3.8,6.9-9.9,10.4-18.3,10.4
		c-9.8,0-15.4-4.4-16.7-13.3c-0.2-0.9-0.2-1.9-0.2-2.9c0-1,0.2-2,0.5-3.2c0.3-1.2,1.2-2.5,2.7-3.9c3-2.8,9.5-4.5,19.5-5.1
		c2.5-0.2,4.8-0.3,6.9-0.3c2.1,0,4,0.1,5.7,0.2V79.6c-0.2-0.1-0.2-0.4,0-1.1c0.2-0.7,0-1.5-0.4-2.6c-0.4-1.1-1-2.1-1.7-3.1
		c-0.7-1-1.9-1.9-3.7-2.6c-1.8-0.7-4.1-1.1-7-1.1c-2.9,0-6.2,0.5-10.1,1.6c-3.9,1.1-6.7,2.1-8.5,3.1l-0.5-0.8
		c6.9-3.2,14-4.8,21.1-4.8c8,0,13.3,1.4,15.9,4.3c2,2.3,3,4.6,3,7.1v39.1c0,2.3,0.4,4,1.3,5.2c0.9,1.2,1.8,1.8,2.7,1.9l1.3,0.2h3.6
		v0.9H255.1z M225.1,126.5c4.1,0,7.8-1.4,11.1-4.3c3.3-2.8,5.1-5.6,5.3-8.2V99.9c-2.1-0.2-4.2-0.2-6.4-0.2c-2.1,0-4.3,0.1-6.4,0.3
		c-5.9,0.7-9.8,2-11.6,4c-1.8,1.9-2.7,4.6-2.7,8.1c0,0.6,0,1.3,0.1,2.1C215.4,122.4,218.9,126.5,225.1,126.5z"/>
	<path class="st0" d="M287.5,73.6v-2.5c-3.5,1.4-6.7,4.2-9.6,8.5c-2.9,4.2-4.4,8.2-4.6,12V127h-8.2V68.6h8.2v18.6
		c1.2-4.5,3.6-8.8,7.1-12.8c3.5-4,7.5-6.1,11.9-6.2h0.5c1.6,0,2.9,0.5,3.9,1.6c1.1,1.1,1.6,2.4,1.6,3.9c0,1.6-0.5,2.8-1.6,3.9
		c-1,1-2.4,1.5-3.9,1.5c-1.6,0-2.8-0.5-3.9-1.5C288,76.5,287.5,75.2,287.5,73.6z"/>
	<path class="st0" d="M351.8,127c-5.3,0-8.9-1-10.9-3c-1.8-1.7-2.7-3.2-2.7-4.4v-2.5c-3.8,6.9-9.9,10.4-18.3,10.4
		c-9.8,0-15.4-4.4-16.7-13.3c-0.2-0.9-0.2-1.9-0.2-2.9c0-1,0.2-2,0.5-3.2c0.3-1.2,1.2-2.5,2.7-3.9c3-2.8,9.5-4.5,19.5-5.1
		c2.5-0.2,4.8-0.3,6.9-0.3s4,0.1,5.7,0.2V79.6c-0.2-0.1-0.2-0.4,0-1.1c0.2-0.7,0-1.5-0.4-2.6c-0.4-1.1-1-2.1-1.7-3.1
		c-0.7-1-1.9-1.9-3.7-2.6c-1.8-0.7-4.1-1.1-7-1.1c-2.9,0-6.2,0.5-10.1,1.6c-3.9,1.1-6.7,2.1-8.5,3.1l-0.5-0.8
		c6.9-3.2,14-4.8,21.1-4.8c8,0,13.3,1.4,15.9,4.3c2,2.3,3,4.6,3,7.1v39.1c0,2.3,0.4,4,1.3,5.2c0.9,1.2,1.8,1.8,2.7,1.9l1.3,0.2h3.6
		v0.9H351.8z M321.8,126.5c4.1,0,7.8-1.4,11.1-4.3c3.3-2.8,5.1-5.6,5.3-8.2V99.9c-2.1-0.2-4.2-0.2-6.4-0.2c-2.1,0-4.3,0.1-6.4,0.3
		c-5.9,0.7-9.8,2-11.6,4c-1.8,1.9-2.7,4.6-2.7,8.1c0,0.6,0,1.3,0.1,2.1C312.1,122.4,315.6,126.5,321.8,126.5z"/>
	<path class="st0" d="M445.6,50.2c-7.1-2.7-13.8-4.1-20-4.1c-6.3,0-11.1,1.3-14.6,4c-3.5,2.6-5.3,6.3-5.3,11c0,5.7,3,10.1,8.9,13.2
		c2.6,1.3,5.5,2.5,8.7,3.7c3.2,1.1,6.3,2.4,9.5,3.8c3.2,1.4,6.1,3,8.8,4.8c2.6,1.8,4.8,4.3,6.4,7.4c1.6,3.2,2.5,7.2,2.5,12
		c0,4.9-1.4,9-4.1,12.4c-2.7,3.4-6,5.7-9.9,6.9c-3.9,1.2-8.3,1.8-13.5,1.8c-9.6,0-17.7-2.4-24.5-7.1l0.6-0.9c2.6,2,5.9,3.7,10,5
		c4.1,1.3,8.3,1.9,12.5,1.9c6.3,0,11.7-1.5,16.2-4.4c4.5-2.9,6.7-7.2,6.7-12.9c0-6.2-3-11.1-8.9-14.6c-2.6-1.6-5.5-3-8.7-4.3
		c-3.2-1.3-6.3-2.7-9.5-4.1c-3.2-1.4-6.1-3.1-8.8-4.8c-5.9-3.9-8.9-9.4-8.9-16.6c0-5.7,1.9-10.3,5.7-13.8c3.8-3.5,9.6-5.3,17.2-5.3
		c7.7,0,15.5,1.3,23.4,4L445.6,50.2z"/>
	<path class="st0" d="M458.6,69.6v-0.9h2.5V56.9h8.2v11.7H487v0.9h-17.9V112c0,5.1,0.6,8.7,1.7,11c1.1,2.3,3.5,3.4,7.1,3.4
		s7.3-0.7,11-2.2l0.4,0.9c-3.9,1.5-8.3,2.2-13.4,2.2s-8.8-1-11.3-3.1c-2.5-2.1-3.7-6.2-3.7-12.3V69.6H458.6z"/>
	<path class="st0" d="M544,127c-5.3,0-8.9-1-10.9-3c-1.8-1.7-2.7-3.2-2.7-4.4v-2.5c-3.8,6.9-9.9,10.4-18.3,10.4
		c-9.8,0-15.4-4.4-16.7-13.3c-0.2-0.9-0.2-1.9-0.2-2.9c0-1,0.2-2,0.5-3.2c0.3-1.2,1.2-2.5,2.7-3.9c3-2.8,9.5-4.5,19.5-5.1
		c2.5-0.2,4.8-0.3,6.9-0.3s4,0.1,5.7,0.2V79.6c-0.2-0.1-0.2-0.4,0-1.1c0.2-0.7,0-1.5-0.4-2.6c-0.4-1.1-1-2.1-1.7-3.1
		c-0.7-1-1.9-1.9-3.7-2.6c-1.8-0.7-4.1-1.1-7-1.1c-2.9,0-6.2,0.5-10.1,1.6c-3.9,1.1-6.7,2.1-8.5,3.1l-0.5-0.8
		c6.9-3.2,14-4.8,21.1-4.8c8,0,13.3,1.4,15.9,4.3c2,2.3,3,4.6,3,7.1v39.1c0,2.3,0.4,4,1.3,5.2c0.9,1.2,1.8,1.8,2.7,1.9l1.3,0.2h3.6
		v0.9H544z M514,126.5c4.1,0,7.8-1.4,11.1-4.3c3.3-2.8,5.1-5.6,5.3-8.2V99.9c-2.1-0.2-4.2-0.2-6.4-0.2c-2.1,0-4.3,0.1-6.4,0.3
		c-5.9,0.7-9.8,2-11.6,4c-1.8,1.9-2.7,4.6-2.7,8.1c0,0.6,0,1.3,0.1,2.1C504.3,122.4,507.8,126.5,514,126.5z"/>
	<path class="st0" d="M576.3,73.6v-2.5c-3.5,1.4-6.7,4.2-9.6,8.5c-2.9,4.2-4.4,8.2-4.6,12V127H554V68.6h8.2v18.6
		c1.2-4.5,3.6-8.8,7.1-12.8c3.5-4,7.5-6.1,11.9-6.2h0.5c1.6,0,2.9,0.5,3.9,1.6c1.1,1.1,1.6,2.4,1.6,3.9c0,1.6-0.5,2.8-1.6,3.9
		c-1,1-2.4,1.5-3.9,1.5c-1.6,0-2.8-0.5-3.9-1.5C576.8,76.5,576.3,75.2,576.3,73.6z"/>
</g>
</svg>
