<?xml version="1.0" encoding="utf-8"?>
<!-- Generator: Adobe Illustrator 24.0.1, SVG Export Plug-In . SVG Version: 6.00 Build 0)  -->
<svg version="1.1" id="Layer_1" xmlns="http://www.w3.org/2000/svg" xmlns:xlink="http://www.w3.org/1999/xlink" x="0px" y="0px"
	 viewBox="0 0 496.1 170.1" style="enable-background:new 0 0 496.1 170.1;" xml:space="preserve">
<style type="text/css">
	.st0{fill:#531124;}
</style>
<g transform="translate(0.000000,98.000000) scale(0.100000,-0.100000)">
	<path class="st0" d="M1071.5,864.5L981,808l25.9-51.7c24.2-45.3,27.5-122.8,27.5-625.4c0-315.1-6.5-609.3-14.5-651.3l-12.9-77.6
		l109.9,4.8c88.9,3.2,109.9,9.7,105,29.1c-3.2,12.9-11.3,50.1-19.4,80.8c-8.1,30.7-14.5,360.4-14.5,732.1
		c0,370.1-4.8,673.9-11.3,673.9C1168.4,922.7,1123.2,896.8,1071.5,864.5z"/>
	<path class="st0" d="M787,757.9c-16.2-16.2-119.6-22.6-376.6-25.9c-271.5-4.8-352.3-9.7-341-24.2c37.2-45.3,51.7-232.7,51.7-648.1
		c-1.6-404-6.5-488.1-40.4-610.9l-11.3-45.3h337.8c276.4,0,344.2-4.8,371.7-24.2c35.6-24.2,35.6-22.6,69.5,92.1
		c17.8,64.6,40.4,134.1,48.5,155.1c25.9,61.4,19.4,58.2-64.6-33.9C712.7-538.3,648-564.1,447.6-564.1H284.4l-4.8,355.5
		c-4.8,326.5,1.6,404,25.9,326.5c14.5-45.3,97-84,176.2-84c66.3,0,140.6-37.2,176.2-87.3c9.7-14.5,22.6,27.5,51.7,155.1l9.7,45.3
		L661,106.6c-46.9-32.3-79.2-40.4-158.4-40.4c-187.5,0-219.8,56.6-219.8,396v234.3h171.3c205.2,0,248.9-16.2,373.3-143.8
		c58.2-58.2,82.4-74.3,71.1-48.5c-9.7,21-32.3,92.1-50.1,156.8c-17.8,63-35.6,116.4-37.2,116.4C808,777.2,796.7,767.6,787,757.9z"/>
	<path class="st0" d="M3145,392.6c-11.3-46.9-38.8-106.7-61.4-134.1c-35.6-40.4-50.1-46.9-127.7-46.9c-48.5,0-87.3-6.5-87.3-16.2
		c0-8.1,35.6-16.2,79.2-16.2h79.2l6.5-326.5c4.8-265,11.3-337.8,32.3-378.2c54.9-100.2,187.5-114.7,349.1-38.8
		c54.9,25.9,100.2,54.9,100.2,64.6c0,22.6-8.1,21-71.1-22.6c-69.5-46.9-160-66.3-202-42c-51.7,27.5-66.3,119.6-66.3,441.2v302.2
		h113.1c64.6,0,113.1,6.5,113.1,16.2c0,9.7-45.3,16.2-105,16.2c-119.6,0-118-1.6-124.4,169.7l-4.8,97L3145,392.6z"/>
	<path class="st0" d="M1574.1,253.6c-189.1-67.9-299-269.9-255.3-476.8c24.2-119.6,61.4-189.1,145.5-273.1
		c97-95.4,208.5-129.3,332.9-103.4c90.5,19.4,231.1,88.9,231.1,116.4c0,8.1-33.9-3.2-74.3-24.2c-42-22.6-93.7-40.4-114.7-40.4
		c-74.3,0-147.1,48.5-182.6,119.6C1588.6-287.8,1629-165,1769.6-85.8c126.1,72.7,177.8,124.4,177.8,181
		C1947.4,232.6,1750.2,316.7,1574.1,253.6z M1703.4,221.3c51.7-27.5,88.9-77.6,105-143.8c16.2-69.5,0-101.8-80.8-151.9
		c-130.9-82.4-168.1-224.6-97-366.9l38.8-77.6l-48.5,45.3c-93.7,90.5-176.2,303.8-172.9,455.7c0,103.4,48.5,202,111.5,232.7
		C1629,250.4,1645.2,250.4,1703.4,221.3z"/>
	<path class="st0" d="M2375.7,239.1c-166.5-79.2-287.7-265-289.3-439.6c0-177.8,116.4-332.9,290.9-387.9
		c103.4-32.3,187.5-22.6,305.4,35.6c90.5,43.6,116.4,64.6,100.2,79.2c-4.8,4.8-32.3-6.5-58.2-25.9
		c-153.5-108.3-342.6-35.6-446.1,172.9c-40.4,80.8-46.9,113.1-48.5,231.1c0,116.4,6.5,147.1,38.8,205.2
		c69.5,119.6,205.2,134.1,328.1,35.6l66.3-51.7l53.3,29.1c30.7,16.2,54.9,35.6,54.9,42c0,6.5-25.9,32.3-58.2,58.2
		C2629.4,285.9,2488.8,292.4,2375.7,239.1z"/>
	<path class="st0" d="M3717.1,226.2c-109.9-69.5-108.3-66.3-77.6-127.7c46.9-95.4,48.5-452.5,1.6-662.6
		c-3.2-19.4,17.8-25.9,106.7-29.1c109.9-4.8,109.9-4.8,98.6,32.3c-6.5,21-16.2,168.1-19.4,329.7l-8.1,290.9l58.2,51.7
		c32.3,29.1,69.5,51.7,80.8,51.7c12.9,0,59.8-25.9,105-56.6c54.9-35.6,85.7-48.5,90.5-35.6c48.5,158.4,48.5,164.8-16.2,189.1
		c-59.8,22.6-150.3-12.9-234.3-90.5c-42-38.8-79.2-71.1-82.4-71.1s-3.2,40.4-1.6,88.9c3.2,48.5,0,88.9-8.1,88.9
		C3804.3,276.3,3762.3,253.6,3717.1,226.2z"/>
	<path class="st0" d="M4507.4,261.7c-114.7-29.1-216.6-119.6-216.6-190.7c0-45.3,16.2-45.3,142.2-3.2c185.9,63,203.6,0,32.3-108.3
		c-205.2-129.3-271.5-211.7-276.4-337.8c-4.8-121.2,63-192.3,202-211.7c105-14.5,198.8,17.8,274.7,93.7l64.6,64.6l-4.8-82.4
		c-4.8-48.5,0-82.4,9.7-82.4c42,0,168.1,59.8,155.1,74.3c-8.1,8.1-17.8,145.5-21,305.4c-6.5,320-22.6,381.4-111.5,446.1
		C4706.1,264.9,4583.3,281.1,4507.4,261.7z M4656,161.5c53.3-50.1,76-172.9,67.9-363.6c-4.8-129.3-12.9-172.9-43.6-224.6
		c-50.1-90.5-105-126.1-205.2-134.1c-76-6.5-87.3-3.2-111.5,35.6c-38.8,59.8-37.2,213.3,4.8,295.8c17.8,35.6,77.6,106.7,132.5,160
		c76,74.3,97,103.4,93.7,135.8c-6.5,53.3-71.1,61.4-185.9,22.6c-46.9-16.2-90.5-24.2-95.4-17.8c-19.4,17.8,76,106.7,130.9,124.4
		C4517,218.1,4612.4,203.5,4656,161.5z"/>
</g>
</svg>
