<?xml version="1.0" encoding="utf-8"?>
<!-- Generator: Adobe Illustrator 24.0.1, SVG Export Plug-In . SVG Version: 6.00 Build 0)  -->
<svg version="1.1" id="Layer_1" xmlns="http://www.w3.org/2000/svg" xmlns:xlink="http://www.w3.org/1999/xlink" x="0px" y="0px"
	 viewBox="0 0 595.3 255.1" style="enable-background:new 0 0 595.3 255.1;" xml:space="preserve">
<style type="text/css">
	.st0{fill:url(#SVGID_1_);}
	.st1{fill:url(#SVGID_2_);}
	.st2{fill:url(#SVGID_3_);}
	.st3{fill:url(#SVGID_4_);}
	.st4{fill:url(#SVGID_5_);}
	.st5{fill:url(#SVGID_6_);}
	.st6{fill:url(#SVGID_7_);}
	.st7{fill:url(#SVGID_8_);}
	.st8{fill:url(#SVGID_9_);}
	.st9{fill:url(#SVGID_10_);}
	.st10{fill:url(#SVGID_11_);}
	.st11{fill:url(#SVGID_12_);}
	.st12{fill:url(#SVGID_13_);}
	.st13{fill:url(#SVGID_14_);}
	.st14{fill:url(#SVGID_15_);}
	.st15{fill:url(#SVGID_16_);}
</style>
<g>
	<g>
		<g>
			<g>
				<linearGradient id="SVGID_1_" gradientUnits="userSpaceOnUse" x1="3.132" y1="114.7864" x2="134.3187" y2="114.7864">
					<stop  offset="0" style="stop-color:#987530"/>
					<stop  offset="0.4804" style="stop-color:#AE8F3F"/>
					<stop  offset="1" style="stop-color:#BD9B3C"/>
				</linearGradient>
				<path class="st0" d="M134.3,197.9h-23.6l-12.2-27.1h-35H28.6l-12.2,27.1L3.1,174.6L63.6,31.7L134.3,197.9z M63.5,153h27
					c-4.5-10.3-9-21.4-13.5-33.3c-4.5-11.9-8.9-23-13.3-33.4c-4.5,10.4-9,21.5-13.6,33.4c-4.5,11.9-9,23-13.5,33.3H63.5z"/>
				<linearGradient id="SVGID_2_" gradientUnits="userSpaceOnUse" x1="257.0013" y1="150.344" x2="360.6407" y2="150.344">
					<stop  offset="0" style="stop-color:#987530"/>
					<stop  offset="0.4804" style="stop-color:#AE8F3F"/>
					<stop  offset="1" style="stop-color:#BD9B3C"/>
				</linearGradient>
				<path class="st1" d="M352.3,176c-4.1,4.1-8.7,7.3-13.8,9.4c-5.2,2.1-10.7,3.2-16.3,3.2c-5.9,0-11.4-1.1-16.4-3.2
					c-5.2-2.1-9.8-5.2-13.9-9.4c-4.3-4.4-7.4-9-9.4-13.8c-2.1-5.2-3.2-10.6-3.2-16.4V89.6H257v56.3c0,9.1,1.5,17.4,4.6,25
					c3.2,7.7,8,14.7,14.4,21c6.2,6.4,13.2,11.3,21.1,14.5c7.6,3.1,16,4.6,25.1,4.6c9,0,17.3-1.6,24.9-4.8c4.6-1.8,9.1-4.4,13.4-7.6
					v-33.9C358.4,169.1,355.7,172.8,352.3,176z"/>
				<linearGradient id="SVGID_3_" gradientUnits="userSpaceOnUse" x1="375.9731" y1="114.7889" x2="485.0379" y2="114.7889">
					<stop  offset="0" style="stop-color:#987530"/>
					<stop  offset="0.4804" style="stop-color:#AE8F3F"/>
					<stop  offset="1" style="stop-color:#BD9B3C"/>
				</linearGradient>
				<path class="st2" d="M406.7,31.7h12.5c5.7,0,11.2,1.1,16.7,3.4c5.4,2.3,10.1,5.5,14.1,9.6c3.9,4,7,8.5,9.2,13.3
					c2.1,5,3.1,10.4,3.1,16.1c0,2.8-0.6,6.1-1.7,10.1c-1.2,4-2.8,7.9-4.9,11.5l-3.7,6.6l6.9,3.1c2.3,1.1,4.6,2.4,6.9,3.8
					c1.9,1.3,3.5,2.6,4.9,3.9c4.6,4.8,8.2,10.2,10.6,16.2c2.5,5.8,3.7,12.1,3.7,18.9c0,6.9-1.2,13.2-3.7,19c-2.5,6-6,11.4-10.6,16.1
					c-4.6,4.7-10,8.3-16.1,11c-6,2.5-12.3,3.7-18.8,3.7h-23.7H405h-5.7H376V31.7H406.7z M398,100.2l7.3-0.3
					c2.7-0.1,6.3-0.4,10.9-0.7c1-0.1,2-0.1,2.8-0.1l0.4-0.1c3.5-0.4,6.2-1.1,8.2-2c2.4-1.1,4.8-2.9,7.3-5.4c2.1-2.2,3.7-4.7,4.8-7.4
					c1.1-2.7,1.7-5.6,1.7-8.7c0-3.1-0.6-5.9-1.7-8.6c-1.1-2.6-2.7-5.1-4.8-7.4c-2-1.9-4.4-3.5-7.2-4.8c-2.7-1.1-5.5-1.7-8.5-1.7
					h-12.5H405h-7V60v33V100.2z M398,176.6h7h7.2h23.7c3.5,0,7-0.7,10.6-2.1c3.6-1.5,6.6-3.5,9.1-6.1c2.5-2.4,4.5-5.5,6.1-9.3
					c1.4-3.7,2.1-7.3,2.1-11c0-3.6-0.7-7.3-2.1-10.8c-1.5-3.6-3.5-6.7-6.1-9.4c-2.8-2.7-5.7-4.7-8.8-6.1c-3.4-1.6-6.9-2.6-10.4-2.8
					c-3.8-0.2-7.4-0.3-10.9-0.3c-3.5,0-6.9,0.1-10.4,0.2c-1.7,0-3.4,0-5.1,0.1c-1.7,0-3.3,0.1-4.9,0.1h-7v6.9v43.7V176.6z"/>
				<linearGradient id="SVGID_4_" gradientUnits="userSpaceOnUse" x1="497.1082" y1="114.7889" x2="591.2001" y2="114.7889">
					<stop  offset="0" style="stop-color:#987530"/>
					<stop  offset="0.4804" style="stop-color:#AE8F3F"/>
					<stop  offset="1" style="stop-color:#BD9B3C"/>
				</linearGradient>
				<path class="st3" d="M591.2,31.7v22h-65.1h-6.9v6.9v36.1v7h6.9h47v22h-47h-6.9v6.9v36.1v7h6.9h65.1v22h-65.1h-29V31.7H591.2z"/>
				<g>
					<linearGradient id="SVGID_5_" gradientUnits="userSpaceOnUse" x1="127.2113" y1="107.1538" x2="316.2502" y2="107.1538">
						<stop  offset="0" style="stop-color:#987530"/>
						<stop  offset="0.4804" style="stop-color:#AE8F3F"/>
						<stop  offset="1" style="stop-color:#BD9B3C"/>
					</linearGradient>
					<path class="st4" d="M304.8,33.6C286,14.8,259.9,3.1,231.2,3.1c-28.7,0-54.8,11.7-73.5,30.5c-18.8,18.8-30.5,44.9-30.5,73.5
						c0,28.7,11.7,54.8,30.5,73.5c18.8,18.8,44.9,30.5,73.5,30.5c4.7,0,9.4-0.3,13.9-1v-21.9c-4.5,0.8-9.2,1.2-13.9,1.2
						c-22.8,0-43.3-9.2-58.2-24.1c-14.9-14.9-24.1-35.5-24.1-58.2c0-22.8,9.2-43.3,24.1-58.2c14.9-14.9,35.5-24.1,58.2-24.1
						c21.9,0,41.7,8.5,56.5,22.5h28.5C312.8,42.4,309,37.8,304.8,33.6z"/>
				</g>
			</g>
		</g>
		<g>
			<linearGradient id="SVGID_6_" gradientUnits="userSpaceOnUse" x1="3.132" y1="234.9458" x2="13.9537" y2="234.9458">
				<stop  offset="0" style="stop-color:#987530"/>
				<stop  offset="0.4804" style="stop-color:#AE8F3F"/>
				<stop  offset="1" style="stop-color:#BD9B3C"/>
			</linearGradient>
			<path class="st5" d="M3.1,247.4l5-25H14l-5,25H3.1z"/>
			<linearGradient id="SVGID_7_" gradientUnits="userSpaceOnUse" x1="18.4168" y1="234.9443" x2="46.3472" y2="234.9443">
				<stop  offset="0" style="stop-color:#987530"/>
				<stop  offset="0.4804" style="stop-color:#AE8F3F"/>
				<stop  offset="1" style="stop-color:#BD9B3C"/>
			</linearGradient>
			<polygon class="st6" points="46.3,222.4 41.4,247.4 36.6,247.4 27.3,231.8 24.1,247.4 18.4,247.4 23.4,222.4 28.2,222.4 
				37.5,238.1 40.6,222.4 			"/>
			<linearGradient id="SVGID_8_" gradientUnits="userSpaceOnUse" x1="50.8518" y1="234.9458" x2="78.6399" y2="234.9458">
				<stop  offset="0" style="stop-color:#987530"/>
				<stop  offset="0.4804" style="stop-color:#AE8F3F"/>
				<stop  offset="1" style="stop-color:#BD9B3C"/>
			</linearGradient>
			<path class="st7" d="M50.9,247.4l5-25h10.5c2.6,0,4.8,0.4,6.6,1.3c1.8,0.8,3.3,2,4.2,3.6c1,1.6,1.5,3.4,1.5,5.6
				c0,2.2-0.4,4.2-1.1,6c-0.8,1.8-1.8,3.3-3.2,4.6c-1.4,1.3-3,2.3-4.9,2.9c-1.9,0.7-4,1-6.3,1H50.9z M57.6,242.7h5.6
				c2,0,3.7-0.4,5.2-1.2c1.4-0.8,2.5-2,3.2-3.4c0.8-1.4,1.1-3,1.1-4.9c0-1.2-0.3-2.3-0.8-3.2c-0.5-0.9-1.3-1.6-2.4-2.1
				c-1.1-0.5-2.4-0.7-3.9-0.7h-5L57.6,242.7z"/>
			<linearGradient id="SVGID_9_" gradientUnits="userSpaceOnUse" x1="85.6486" y1="235.1603" x2="111.3224" y2="235.1603">
				<stop  offset="0" style="stop-color:#987530"/>
				<stop  offset="0.4804" style="stop-color:#AE8F3F"/>
				<stop  offset="1" style="stop-color:#BD9B3C"/>
			</linearGradient>
			<path class="st8" d="M95.7,247.9c-2.4,0-4.5-0.5-6.1-1.4c-1.6-1-2.8-2.3-3.4-4c-0.7-1.7-0.8-3.7-0.3-6l2.8-14h5.8l-2.8,13.9
				c-0.2,1.1-0.3,2.1-0.2,2.9c0.1,0.8,0.3,1.5,0.7,2.1c0.4,0.5,0.9,1,1.6,1.2c0.7,0.3,1.5,0.4,2.4,0.4c1.2,0,2.2-0.2,3-0.7
				c0.9-0.5,1.6-1.2,2.1-2.1c0.6-1,1-2.2,1.3-3.8l2.8-13.9h5.7l-2.8,14.3c-0.7,3.7-2.2,6.5-4.3,8.4C102,246.9,99.2,247.9,95.7,247.9
				z"/>
			<linearGradient id="SVGID_10_" gradientUnits="userSpaceOnUse" x1="114.3225" y1="234.9464" x2="137.7897" y2="234.9464">
				<stop  offset="0" style="stop-color:#987530"/>
				<stop  offset="0.4804" style="stop-color:#AE8F3F"/>
				<stop  offset="1" style="stop-color:#BD9B3C"/>
			</linearGradient>
			<path class="st9" d="M124.4,247.9c-1.4,0-2.7-0.1-3.9-0.4c-1.3-0.2-2.4-0.6-3.5-1c-1-0.4-1.9-0.9-2.6-1.4l2.4-4.5
				c0.8,0.5,1.6,1,2.5,1.4c0.9,0.4,1.8,0.7,2.8,0.9c1,0.2,2,0.3,2.9,0.3c1.1,0,2-0.1,2.8-0.4c0.8-0.2,1.4-0.6,1.8-1
				c0.4-0.4,0.6-1,0.6-1.6c0-0.6-0.2-1-0.7-1.4c-0.5-0.4-1-0.7-1.8-0.9c-0.7-0.2-1.5-0.5-2.4-0.7c-0.9-0.2-1.8-0.5-2.7-0.8
				c-0.9-0.3-1.7-0.7-2.4-1.2c-0.7-0.5-1.3-1.1-1.8-1.9c-0.5-0.8-0.7-1.7-0.7-2.9c0-1.7,0.5-3.2,1.4-4.5c0.9-1.3,2.3-2.2,4-2.9
				c1.7-0.7,3.7-1.1,6-1.1c1.7,0,3.3,0.2,4.8,0.6c1.5,0.4,2.8,0.9,3.9,1.6l-2.2,4.4c-1-0.6-2-1.1-3.2-1.4c-1.2-0.3-2.4-0.5-3.6-0.5
				c-1.1,0-2.1,0.1-2.9,0.4c-0.8,0.3-1.4,0.6-1.8,1.1c-0.4,0.5-0.6,1-0.6,1.6c0,0.6,0.2,1.1,0.7,1.4c0.4,0.4,1,0.7,1.8,0.9
				c0.7,0.2,1.5,0.5,2.4,0.7c0.9,0.2,1.8,0.5,2.6,0.8c0.9,0.3,1.7,0.7,2.4,1.2c0.7,0.5,1.3,1.1,1.8,1.8c0.5,0.7,0.7,1.6,0.7,2.7
				c0,1.7-0.5,3.2-1.4,4.5c-1,1.3-2.3,2.3-4,3C128.7,247.5,126.7,247.9,124.4,247.9z"/>
			<linearGradient id="SVGID_11_" gradientUnits="userSpaceOnUse" x1="142.8623" y1="234.9458" x2="165.6148" y2="234.9458">
				<stop  offset="0" style="stop-color:#987530"/>
				<stop  offset="0.4804" style="stop-color:#AE8F3F"/>
				<stop  offset="1" style="stop-color:#BD9B3C"/>
			</linearGradient>
			<path class="st10" d="M146.8,247.4l4-20.3h-8l1-4.7h21.8l-1,4.7h-8l-4.1,20.3H146.8z"/>
			<linearGradient id="SVGID_12_" gradientUnits="userSpaceOnUse" x1="167.2926" y1="234.9443" x2="192.2584" y2="234.9443">
				<stop  offset="0" style="stop-color:#987530"/>
				<stop  offset="0.4804" style="stop-color:#AE8F3F"/>
				<stop  offset="1" style="stop-color:#BD9B3C"/>
			</linearGradient>
			<path class="st11" d="M189.7,224.5c-1.7-1.4-4.1-2-7.2-2h-10.2l-5,25h5.8l1.4-7h4.9l3.9,7h6.1l-4.4-7.7c0.5-0.2,1-0.3,1.5-0.6
				c1.8-0.8,3.2-2,4.2-3.6c1-1.5,1.5-3.4,1.5-5.4C192.3,227.7,191.4,225.8,189.7,224.5z M184.8,234.5c-1.1,0.9-2.6,1.3-4.5,1.3h-4.9
				l1.7-8.7h4.6c1.5,0,2.6,0.3,3.5,0.9c0.8,0.6,1.2,1.5,1.2,2.7C186.4,232.4,185.9,233.7,184.8,234.5z"/>
			<linearGradient id="SVGID_13_" gradientUnits="userSpaceOnUse" x1="197.1177" y1="234.9458" x2="207.9395" y2="234.9458">
				<stop  offset="0" style="stop-color:#987530"/>
				<stop  offset="0.4804" style="stop-color:#AE8F3F"/>
				<stop  offset="1" style="stop-color:#BD9B3C"/>
			</linearGradient>
			<path class="st12" d="M197.1,247.4l5-25h5.8l-5,25H197.1z"/>
			<linearGradient id="SVGID_14_" gradientUnits="userSpaceOnUse" x1="212.4076" y1="234.9443" x2="236.3038" y2="234.9443">
				<stop  offset="0" style="stop-color:#987530"/>
				<stop  offset="0.4804" style="stop-color:#AE8F3F"/>
				<stop  offset="1" style="stop-color:#BD9B3C"/>
			</linearGradient>
			<polygon class="st13" points="222.2,227.1 221.1,232.5 232.8,232.5 231.9,237 220.2,237 219.1,242.8 232.7,242.8 231.8,247.4 
				212.4,247.4 217.4,222.4 236.3,222.4 235.3,227.1 			"/>
			<linearGradient id="SVGID_15_" gradientUnits="userSpaceOnUse" x1="238.6223" y1="234.9464" x2="262.0896" y2="234.9464">
				<stop  offset="0" style="stop-color:#987530"/>
				<stop  offset="0.4804" style="stop-color:#AE8F3F"/>
				<stop  offset="1" style="stop-color:#BD9B3C"/>
			</linearGradient>
			<path class="st14" d="M248.7,247.9c-1.4,0-2.7-0.1-3.9-0.4s-2.4-0.6-3.5-1c-1-0.4-1.9-0.9-2.6-1.4l2.4-4.5c0.8,0.5,1.6,1,2.5,1.4
				c0.9,0.4,1.8,0.7,2.8,0.9c1,0.2,2,0.3,2.9,0.3c1.1,0,2-0.1,2.8-0.4c0.8-0.2,1.4-0.6,1.8-1c0.4-0.4,0.6-1,0.6-1.6
				c0-0.6-0.2-1-0.7-1.4c-0.5-0.4-1-0.7-1.8-0.9c-0.7-0.2-1.5-0.5-2.4-0.7c-0.9-0.2-1.8-0.5-2.7-0.8s-1.7-0.7-2.4-1.2
				c-0.7-0.5-1.3-1.1-1.8-1.9c-0.5-0.8-0.7-1.7-0.7-2.9c0-1.7,0.5-3.2,1.4-4.5c0.9-1.3,2.3-2.2,4-2.9c1.7-0.7,3.7-1.1,6-1.1
				c1.7,0,3.3,0.2,4.8,0.6c1.5,0.4,2.8,0.9,3.9,1.6l-2.2,4.4c-1-0.6-2-1.1-3.2-1.4c-1.2-0.3-2.4-0.5-3.6-0.5c-1.1,0-2.1,0.1-2.9,0.4
				c-0.8,0.3-1.4,0.6-1.8,1.1c-0.4,0.5-0.6,1-0.6,1.6c0,0.6,0.2,1.1,0.7,1.4c0.4,0.4,1,0.7,1.8,0.9c0.7,0.2,1.5,0.5,2.4,0.7
				c0.9,0.2,1.8,0.5,2.6,0.8c0.9,0.3,1.7,0.7,2.4,1.2c0.7,0.5,1.3,1.1,1.8,1.8c0.5,0.7,0.7,1.6,0.7,2.7c0,1.7-0.5,3.2-1.4,4.5
				c-1,1.3-2.3,2.3-4,3C253,247.5,251,247.9,248.7,247.9z"/>
		</g>
	</g>
	<linearGradient id="SVGID_16_" gradientUnits="userSpaceOnUse" x1="269.1214" y1="244.1992" x2="592.6706" y2="244.1992">
		<stop  offset="0" style="stop-color:#987530"/>
		<stop  offset="0.4804" style="stop-color:#AE8F3F"/>
		<stop  offset="1" style="stop-color:#BD9B3C"/>
	</linearGradient>
	<polygon class="st15" points="586.3,247.9 269.1,247.9 269.1,240.5 592.7,240.5 	"/>
</g>
</svg>
