<?xml version="1.0" encoding="utf-8"?>
<!-- Generator: Adobe Illustrator 24.0.1, SVG Export Plug-In . SVG Version: 6.00 Build 0)  -->
<svg version="1.1" id="Layer_1" xmlns="http://www.w3.org/2000/svg" xmlns:xlink="http://www.w3.org/1999/xlink" x="0px" y="0px"
	 viewBox="0 0 595.3 255.1" style="enable-background:new 0 0 595.3 255.1;" xml:space="preserve">
<style type="text/css">
	.st0{fill:#FFFFFF;}
</style>
<g>
	<g>
		<g>
			<g>
				<path class="st0" d="M135.4,199.8H112l-12.1-26.9H65.1H30.4l-12.1,26.9L5.1,176.7l60-141.9L135.4,199.8z M65.1,155.3h26.8
					c-4.5-10.3-8.9-21.3-13.4-33.1c-4.4-11.8-8.8-22.9-13.2-33.2c-4.5,10.3-9,21.4-13.5,33.2c-4.5,11.8-9,22.8-13.4,33.1H65.1z"/>
				<path class="st0" d="M351.8,178.1c-4,4.1-8.6,7.2-13.7,9.3c-5.2,2.1-10.6,3.2-16.2,3.2c-5.9,0-11.3-1.1-16.3-3.2
					c-5.1-2-9.7-5.2-13.8-9.3c-4.2-4.3-7.4-8.9-9.3-13.7c-2.1-5.1-3.2-10.5-3.2-16.3V92.3h-22.1v55.9c0,9,1.5,17.3,4.6,24.8
					c3.2,7.6,7.9,14.6,14.3,20.9c6.2,6.4,13.2,11.2,21,14.4c7.5,3.1,15.9,4.6,24.9,4.6c8.9,0,17.2-1.6,24.7-4.7
					c4.6-1.8,9-4.4,13.3-7.6V167C357.9,171.2,355.2,175,351.8,178.1z"/>
				<path class="st0" d="M405.8,34.9h12.4c5.6,0,11.1,1.1,16.5,3.3c5.3,2.3,10,5.5,14,9.5c3.9,4,7,8.4,9.1,13.2
					c2.1,5,3.1,10.3,3.1,16c0,2.7-0.6,6.1-1.7,10c-1.2,4-2.8,7.8-4.9,11.4l-3.7,6.5l6.9,3.1c2.3,1.1,4.6,2.4,6.9,3.8
					c1.8,1.3,3.5,2.6,4.9,3.9c4.6,4.8,8.1,10.2,10.5,16.1c2.4,5.8,3.7,12,3.7,18.7c0,6.8-1.2,13.1-3.7,18.9c-2.4,6-6,11.3-10.5,16
					c-4.6,4.7-9.9,8.3-16,10.9c-6,2.4-12.2,3.7-18.6,3.7h-23.5h-7.1h-5.7h-23.2v-165H405.8z M397.2,102.9l7.2-0.3
					c2.7-0.1,6.3-0.4,10.9-0.7c1-0.1,2-0.1,2.8-0.1l0.4-0.1c3.5-0.4,6.2-1.1,8.1-2c2.4-1.1,4.8-2.9,7.2-5.3c2.1-2.2,3.7-4.7,4.8-7.3
					c1.1-2.7,1.7-5.5,1.7-8.7c0-3-0.6-5.9-1.7-8.5c-1.1-2.6-2.7-5-4.8-7.3c-2-1.9-4.4-3.5-7.1-4.8c-2.7-1.1-5.5-1.7-8.4-1.7h-12.4
					h-1.7h-7v6.9v32.7V102.9z M397.2,178.7h7h7.1h23.5c3.5,0,7-0.7,10.5-2.1c3.5-1.5,6.5-3.5,9-6.1c2.4-2.4,4.5-5.4,6.1-9.2
					c1.4-3.6,2.1-7.2,2.1-10.9c0-3.6-0.7-7.2-2.1-10.8c-1.5-3.6-3.5-6.7-6.1-9.3c-2.7-2.7-5.7-4.7-8.8-6.1
					c-3.4-1.6-6.8-2.6-10.3-2.8c-3.8-0.2-7.4-0.3-10.8-0.3c-3.4,0-6.9,0.1-10.4,0.2c-1.7,0-3.4,0-5,0.1c-1.7,0-3.3,0.1-4.8,0.1h-7
					v6.9v43.4V178.7z"/>
				<path class="st0" d="M589,34.9v21.9h-64.6h-6.8v6.8v35.9v7h6.8h46.7v21.9h-46.7h-6.8v6.8V171v7h6.8H589v21.9h-64.6h-28.8v-165
					H589z"/>
				<g>
					<path class="st0" d="M304.6,36.7c-18.7-18.7-44.5-30.3-73-30.2c-28.5,0-54.4,11.6-73,30.2c-18.7,18.7-30.3,44.5-30.2,73
						c0,28.5,11.6,54.4,30.2,73c18.7,18.7,44.5,30.3,73,30.2c4.7,0,9.3-0.3,13.8-1v-21.7c-4.5,0.8-9.1,1.2-13.8,1.2
						c-22.6,0-43-9.1-57.8-24c-14.8-14.8-23.9-35.2-23.9-57.8c0-22.6,9.1-43,23.9-57.8C188.6,37.1,209,28,231.6,28
						c21.8,0,41.4,8.5,56.1,22.3H316C312.6,45.5,308.8,40.9,304.6,36.7z"/>
				</g>
			</g>
		</g>
		<g>
			<path class="st0" d="M5.1,249l5-24.8h5.8l-5,24.8H5.1z"/>
			<polygon class="st0" points="48.1,224.2 43.1,249 38.4,249 29.1,233.5 26,249 20.3,249 25.3,224.2 30,224.2 39.3,239.8 
				42.4,224.2 			"/>
			<path class="st0" d="M52.5,249l5-24.8h10.4c2.6,0,4.7,0.4,6.6,1.3c1.8,0.8,3.2,2,4.2,3.6c1,1.5,1.5,3.4,1.5,5.5
				c0,2.2-0.4,4.2-1.1,6s-1.8,3.3-3.2,4.6s-3,2.2-4.9,2.9c-1.9,0.7-4,1-6.3,1H52.5z M59.2,244.3h5.6c2,0,3.7-0.4,5.1-1.2
				c1.4-0.8,2.5-2,3.2-3.4c0.7-1.4,1.1-3,1.1-4.8c0-1.2-0.3-2.3-0.8-3.2c-0.5-0.9-1.3-1.6-2.4-2.1c-1.1-0.5-2.4-0.7-3.9-0.7h-4.9
				L59.2,244.3z"/>
			<path class="st0" d="M97.1,249.5c-2.4,0-4.4-0.5-6-1.4c-1.6-0.9-2.7-2.3-3.4-4c-0.7-1.7-0.8-3.7-0.3-6l2.8-13.9h5.8L93.1,238
				c-0.2,1.1-0.3,2.1-0.2,2.9c0.1,0.8,0.3,1.5,0.7,2.1c0.4,0.5,0.9,0.9,1.6,1.2c0.7,0.3,1.5,0.4,2.4,0.4c1.2,0,2.2-0.2,3-0.7
				c0.9-0.4,1.6-1.2,2.1-2.1c0.6-1,1-2.2,1.3-3.8l2.8-13.8h5.6l-2.8,14.1c-0.7,3.7-2.2,6.4-4.3,8.3
				C103.3,248.5,100.5,249.5,97.1,249.5z"/>
			<path class="st0" d="M125.5,249.5c-1.3,0-2.7-0.1-3.9-0.4c-1.3-0.2-2.4-0.6-3.4-1c-1-0.4-1.9-0.9-2.6-1.4l2.3-4.4
				c0.8,0.5,1.6,1,2.5,1.4c0.9,0.4,1.8,0.7,2.8,0.9c1,0.2,1.9,0.3,2.9,0.3c1.1,0,2-0.1,2.7-0.4c0.8-0.2,1.4-0.6,1.8-1
				c0.4-0.4,0.6-0.9,0.6-1.6c0-0.6-0.2-1-0.7-1.4c-0.4-0.4-1-0.7-1.8-0.9c-0.7-0.2-1.5-0.5-2.4-0.7c-0.9-0.2-1.8-0.5-2.6-0.8
				c-0.9-0.3-1.7-0.7-2.4-1.2c-0.7-0.5-1.3-1.1-1.8-1.9c-0.4-0.8-0.7-1.7-0.7-2.8c0-1.7,0.5-3.2,1.4-4.4c0.9-1.3,2.3-2.2,4-2.9
				c1.7-0.7,3.7-1,6-1c1.7,0,3.3,0.2,4.8,0.5c1.5,0.4,2.8,0.9,3.8,1.6l-2.2,4.4c-0.9-0.6-2-1.1-3.2-1.4c-1.2-0.3-2.4-0.5-3.6-0.5
				c-1.1,0-2.1,0.1-2.9,0.4c-0.8,0.3-1.4,0.6-1.8,1.1c-0.4,0.5-0.6,1-0.6,1.6s0.2,1.1,0.7,1.4c0.4,0.4,1,0.7,1.8,0.9
				c0.7,0.2,1.5,0.5,2.4,0.7c0.9,0.2,1.7,0.5,2.6,0.8c0.9,0.3,1.7,0.7,2.4,1.2c0.7,0.5,1.3,1.1,1.8,1.8c0.4,0.7,0.7,1.6,0.7,2.7
				c0,1.7-0.5,3.2-1.4,4.5c-0.9,1.3-2.3,2.2-4,2.9C129.8,249.1,127.8,249.5,125.5,249.5z"/>
			<path class="st0" d="M147.8,249l4-20.1h-7.9l1-4.7h21.6l-1,4.7h-7.9l-4,20.1H147.8z"/>
			<path class="st0" d="M190.4,226.2c-1.7-1.3-4.1-2-7.2-2h-10.1l-5,24.8h5.8l1.4-6.9h4.9l3.9,6.9h6.1l-4.3-7.6
				c0.5-0.2,1-0.3,1.4-0.5c1.8-0.8,3.2-2,4.2-3.5c1-1.5,1.5-3.3,1.5-5.4C192.9,229.5,192.1,227.6,190.4,226.2z M185.5,236.2
				c-1.1,0.9-2.5,1.3-4.5,1.3h-4.9l1.7-8.6h4.5c1.5,0,2.6,0.3,3.4,0.9c0.8,0.6,1.2,1.5,1.2,2.7C187.1,234.1,186.6,235.4,185.5,236.2
				z"/>
			<path class="st0" d="M197.7,249l5-24.8h5.8l-5,24.8H197.7z"/>
			<polygon class="st0" points="222.7,228.8 221.6,234.2 233.1,234.2 232.2,238.7 220.7,238.7 219.5,244.4 233.1,244.4 232.1,249 
				212.9,249 217.9,224.2 236.6,224.2 235.7,228.8 			"/>
			<path class="st0" d="M248.9,249.5c-1.3,0-2.7-0.1-3.9-0.4s-2.4-0.6-3.4-1c-1-0.4-1.9-0.9-2.6-1.4l2.3-4.4c0.8,0.5,1.6,1,2.5,1.4
				c0.9,0.4,1.8,0.7,2.8,0.9c1,0.2,1.9,0.3,2.9,0.3c1.1,0,2-0.1,2.7-0.4c0.8-0.2,1.4-0.6,1.8-1c0.4-0.4,0.6-0.9,0.6-1.6
				c0-0.6-0.2-1-0.7-1.4c-0.4-0.4-1-0.7-1.8-0.9c-0.7-0.2-1.5-0.5-2.4-0.7c-0.9-0.2-1.8-0.5-2.6-0.8c-0.9-0.3-1.7-0.7-2.4-1.2
				c-0.7-0.5-1.3-1.1-1.8-1.9c-0.4-0.8-0.7-1.7-0.7-2.8c0-1.7,0.5-3.2,1.4-4.4c0.9-1.3,2.3-2.2,4-2.9c1.7-0.7,3.7-1,6-1
				c1.7,0,3.3,0.2,4.8,0.5c1.5,0.4,2.8,0.9,3.8,1.6l-2.2,4.4c-0.9-0.6-2-1.1-3.2-1.4c-1.2-0.3-2.4-0.5-3.6-0.5
				c-1.1,0-2.1,0.1-2.9,0.4c-0.8,0.3-1.4,0.6-1.8,1.1c-0.4,0.5-0.6,1-0.6,1.6s0.2,1.1,0.7,1.4c0.4,0.4,1,0.7,1.8,0.9
				s1.5,0.5,2.4,0.7c0.9,0.2,1.7,0.5,2.6,0.8c0.9,0.3,1.7,0.7,2.4,1.2c0.7,0.5,1.3,1.1,1.8,1.8c0.4,0.7,0.7,1.6,0.7,2.7
				c0,1.7-0.5,3.2-1.4,4.5c-0.9,1.3-2.3,2.2-4,2.9C253.2,249.1,251.2,249.5,248.9,249.5z"/>
		</g>
	</g>
	<polygon class="st0" points="584.1,249.5 269.2,249.5 269.2,242.2 590.4,242.2 	"/>
</g>
</svg>
