<?xml version="1.0" encoding="utf-8"?>
<!-- Generator: Adobe Illustrator 24.0.1, SVG Export Plug-In . SVG Version: 6.00 Build 0)  -->
<svg version="1.1" id="Layer_1" xmlns="http://www.w3.org/2000/svg" xmlns:xlink="http://www.w3.org/1999/xlink" x="0px" y="0px"
	 viewBox="0 0 595.3 170.1" style="enable-background:new 0 0 595.3 170.1;" xml:space="preserve">
<style type="text/css">
	.st0{fill:#C8994E;}
</style>
<path class="st0" d="M175.9,28.1v0.2c1.9,1.3,3.4,3,4.5,5.3c1.1,2.3,1.7,5.2,1.8,8.9V133c-0.1,3.6-0.7,6.6-1.8,8.9
	c-1.1,2.3-2.6,4-4.5,5.3v0.2h73.6l2.7-22.5h-0.2c-2,3.7-4.2,7-6.6,9.6c-2.3,2.7-4.9,4.9-7.8,6.6c-2.8,1.7-6,2.9-9.5,3.7
	c-3.5,0.7-7.6,1.1-12.1,1.1h-11.8c-1.7,0-3.1-0.4-4.3-1.2c-1.1-0.8-2-1.9-2.7-3.2c-0.7-1.4-1.1-2.9-1.4-4.7
	c-0.2-1.8-0.3-3.5-0.3-5.4V88.4H217c8.5,0,15,3.3,19.4,9.9h0.2V77.1h-0.2C232,83.7,225.5,87,217,87h-21.3V29.6h18.2
	c4.5,0,8.6,0.4,12.1,1.1c3.5,0.7,6.7,2,9.5,3.7c2.8,1.7,5.4,3.9,7.7,6.6c2.3,2.7,4.4,5.9,6.5,9.6h0.2l-2.6-22.5H175.9z"/>
<path class="st0" d="M406.2,29.3c-1.8,0.4-3.6,0.6-5.5,0.6c-2,0-4.1-0.2-6.2-0.5c-2.1-0.3-4.2-0.7-6.4-1c-2.2-0.3-4.3-0.7-6.3-1
	c-2-0.3-3.9-0.5-5.6-0.5c-8.4,0-15.6,1.6-21.6,4.8c-6,3.2-10.9,7.5-14.7,13c-3.8,5.5-6.6,12-8.4,19.3c-1.8,7.4-2.7,15.3-2.7,23.7
	c0,8.4,1.2,16.3,3.7,23.7c2.4,7.4,6,13.8,10.6,19.3c4.6,5.5,10.2,9.9,17,13c6.7,3.2,14.3,4.8,22.7,4.8c7.5,0,14-1.3,19.4-4
	c5.5-2.7,10.1-5.6,14-8.9v-47h-31.2v1.5h9c1.7,0,3.1,0.4,4.3,1.2c1.1,0.8,2,1.9,2.7,3.2c0.7,1.4,1.1,2.9,1.4,4.6
	c0.2,1.7,0.3,3.5,0.3,5.3v22.8c0,5.9-1.4,10.2-4.3,12.9c-2.9,2.7-6.6,4.1-11.2,4.1c-2,0-4.4-0.3-7-0.9c-3.6-0.9-7.3-2.4-11.1-4.6
	c-3.7-2.2-7.3-5.1-10.6-8.9c-3.4-3.7-6.4-8.4-9.1-14.1c-2.7-5.6-4.8-12.4-6.3-20.4c-1.5-8.1-1.9-16-1.4-23.8c0.6-7.8,2-14.8,4.2-21
	c2.2-6.2,5.1-11.2,8.6-15c3.5-3.8,7.4-5.7,11.8-5.7c3.9,0,7.2,0.7,9.9,2.1c2.7,1.4,5.2,3,7.5,4.7c2.3,1.7,4.5,3.3,6.7,4.7
	c2.2,1.4,4.7,2.1,7.6,2.1c1.6,0,3.2-0.5,4.8-1.6c1.6-1.1,3-2.4,4.3-4.1c1.2-1.6,2.3-3.5,3.1-5.5c0.8-2,1.2-3.9,1.2-5.7
	C409.5,28.1,408,28.9,406.2,29.3"/>
<path class="st0" d="M530.2,42.4l22.1,64.2h-41.9L530.2,42.4z M525.2,28.1l4.3,12.1L506,115.6c-2.4,8-4.9,14.5-7.6,19.6
	c-2.7,5.1-5.9,9.1-9.6,11.9v0.2h21v-0.2c-2-2-3.4-5.5-4.2-10.4c-0.7-4.9-0.1-11.9,2-21.1l2.4-7.7h42.9l8.5,24.9
	c1.2,3.7,1.7,6.8,1.4,9c-0.3,2.3-1.5,4-3.4,5.3v0.2h25.9v-0.2c-1.8-1.2-3.5-2.8-5.1-4.8c-1.6-1.9-3.1-4.8-4.4-8.5L539.2,28.1H525.2z
	"/>
<path class="st0" d="M6.9,28.1v0.2c1.8,1.2,3.5,2.8,5.1,4.8c1.6,1.9,3.1,4.8,4.4,8.5l36.5,105.8h14l-4.1-12.1l-0.1-0.2
	c0-3.7,0.2-7.3,0.6-10.9c10.9-3.2,15.8-3.7,20.9-14.2c-10.3,9.1-13.1-0.9-20.8,13.3c0.2-2.2,0.5-4.5,0.9-6.7
	c3.7-9.5,8.3-13.1,13.7-17.2c1.8-1.4,3.7-2.9,5.7-4.7c7.5-2.9,11-8.5,8.2-18.3c-6.3,5.7-12.8,6.3-9.2,18.3c-1.7,1.5-3.4,2.8-5.1,4.1
	c-4.7,3.6-9.3,7.1-12.8,14.9c0.7-3.8,1.5-7.6,2.5-11.3c0,0,0,0,0-0.1c1.8-6.8,4.1-13.3,6.5-19.3c2.4-5.1,6.8-9.2,11.5-10.7
	c2.1,0.9,5.2-0.8,4.7-2.7c-0.6-2-3.8-2.8-5.1,2.2c-2.4,0.8-4.8,2.3-7,4.4c-0.8,0.8-1.5,1.6-2.2,2.5c2.7-5.9,5.5-11.2,8.3-15.6
	c10.6-3,15.3-3.7,20.4-14c-7.5,2.9-13.3-1-21.2,14.1c-4.6,7.4-8.8,16.1-12.1,25.1c0.7-6.2,0.4-12.3-0.1-17.8
	c8.7-6.6,3.1-12.8,3.7-18.3c-7.7,3.8-5.8,9.1-4.7,14.9c0.8,7.2,1.4,15.6,0.1,24.2h0c-0.4,1.1-0.7,2.1-1.1,3.2
	c-0.5,1.4-0.9,2.9-1.3,4.3c0-2.2-0.3-4.5-1-6.6c-0.9-2.8-2.2-5.3-4-7.2c1.3-4.9-1.9-5.8-3.4-4.4c-1.4,1.4,0.5,4.4,2.7,4.6
	c3.7,4,5.6,10.6,4.7,16.8c-1.3,4.8-2.3,9.6-3,14.4c-0.4,2.9-0.8,5.8-1.1,8.6c-0.3,2.8-0.4,5.5-0.5,8.2L30.8,42.5
	c-1.3-3.8-1.7-6.8-1.4-9c0.3-2.3,1.5-4,3.4-5.3v-0.2H6.9z"/>
<path class="st0" d="M82.6,28.1v0.2c2,2,3.4,5.5,4.2,10.4c0.6,4.1,0.2,9.6-1.2,16.7c0.6-0.7,1.6-1.9,3.3-3.5c1.6-4.4,3.3-8.3,5-11.6
	c2.7-5.1,5.8-9.1,9.5-11.9v-0.2H82.6z"/>
</svg>
